<svg id="Layer_1" data-name="Layer 1" xmlns="http://www.w3.org/2000/svg" viewBox="0 0 683.99 172.56"><defs><style>.cls-1{fill:#fe3d1f;}</style></defs><polygon class="cls-1" points="84.5 63.19 55.8 63.19 55.8 72.01 66.57 72.01 66.57 107.69 73.67 107.69 73.67 72.01 84.5 72.01 84.5 63.19"/><path class="cls-1" d="M119,82.94l-13.91,44.5h7.46L116,116.38h14l3.31,11.06h7.4l-13.79-44.5Zm-.36,24.68,4.32-14,4.32,14Z" transform="translate(-22.28 -19.75)"/><polygon class="cls-1" points="136.34 95.56 126.04 63.19 119.18 63.19 119.18 107.69 126.28 107.69 126.28 86.92 132.91 107.69 139.77 107.69 146.16 87.1 146.16 107.69 153.26 107.69 153.26 63.19 146.46 63.19 136.34 95.56"/><path class="cls-1" d="M193.59,82.94H179.15v44.5h7.17V110.16h7.27c7.11,0,11.43-6.15,11.43-13.67S200.87,82.94,193.59,82.94Zm0,18.41h-7.27V91.76h7.27c2.55,0,4.21,1.83,4.21,4.73S196.08,101.35,193.59,101.35Z" transform="translate(-22.28 -19.75)"/><rect class="cls-1" x="185.46" y="63.19" width="7.22" height="44.5"/><path class="cls-1" d="M235.43,119.63c-5.91,0-10.06-5.8-10.06-14.08,0-8.46,4.38-14.68,10.54-14.68,3.78,0,6.45,2.07,8.4,6.75l7.34-3c-2.78-8-8.52-12.72-15.62-12.72-10.36,0-18.11,10.23-18.11,23.91,0,13.43,7.34,22.78,17.57,22.78,7.82,0,13.61-5.39,16.34-14.68l-7.1-2.07C243.13,116.85,239.75,119.63,235.43,119.63Z" transform="translate(-22.28 -19.75)"/><path class="cls-1" d="M270.82,81.88c-10.59,0-17.51,10.29-17.51,23.49,0,13.38,7.33,23.2,17.51,23.2s17.4-9.82,17.4-23.2C288.22,92.23,281.42,81.88,270.82,81.88Zm0,37.87c-5.74,0-10-6-10-14.44,0-8.22,3.85-14.56,10-14.56s10,6.34,10,14.56C280.82,113.83,276.56,119.75,270.82,119.75Z" transform="translate(-22.28 -19.75)"/><polygon class="cls-1" points="294.41 63.19 287.25 63.19 287.25 107.69 312.1 107.69 312.1 98.82 294.41 98.82 294.41 63.19"/><path class="cls-1" d="M349.65,82.94l-13.91,44.5h7.46l3.43-11.06h14l3.31,11.06h7.4l-13.79-44.5Zm-.35,24.68,4.32-14,4.32,14Z" transform="translate(-22.28 -19.75)"/><path class="cls-1" d="M386.82,100.22c-5.86-2.31-7.58-3.73-7.58-5.86,0-2.36,2.13-3.67,5.5-3.67,3.67,0,5.63,1.6,6.57,5.21l7.46-2c-1.78-8-6.1-12-13.61-12-8.23,0-13.26,4.67-13.26,12.19,0,6.74,4,11.36,12.61,14.5,5.44,2.07,7.87,4,7.87,6.57,0,2.72-2.72,4.73-6.63,4.73-4.14,0-6.45-2.19-7.34-7.1l-7,2c1.24,8.94,6.45,13.79,14.56,13.79s13.61-5.27,13.61-13.2C399.6,108.51,395.52,103.65,386.82,100.22Z" transform="translate(-22.28 -19.75)"/><polygon class="cls-1" points="377.73 72.01 388.5 72.01 388.5 107.69 395.61 107.69 395.61 72.01 406.44 72.01 406.44 63.19 377.73 63.19 377.73 72.01"/><rect class="cls-1" x="409.09" y="63.19" width="7.22" height="44.5"/><polygon class="cls-1" points="440.64 91.3 426.08 63.19 419.45 63.19 419.45 107.69 426.62 107.69 426.62 79.52 441.23 107.69 447.74 107.69 447.74 63.19 440.64 63.19 440.64 91.3"/><path class="cls-1" d="M489.43,112.18h7.05c-1.37,5.38-4.68,7.51-7.87,7.51-5,0-8.94-5.09-8.94-14,0-8.29,3.37-14.86,9.35-14.86,3.14,0,5.86,1.78,7.28,6l7-2.07C501,86.79,496,81.88,489,81.88c-10.47,0-16.57,10.89-16.57,23.85,0,13.43,6.57,22.84,15.56,22.84a10.49,10.49,0,0,0,8.88-4.62l.42,3.49h6.45V103.36H489.43Z" transform="translate(-22.28 -19.75)"/><polygon class="cls-1" points="510.89 63.19 503.73 63.19 503.73 107.69 528.58 107.69 528.58 98.82 510.89 98.82 510.89 63.19"/><path class="cls-1" d="M569,81.88c-10.59,0-17.52,10.29-17.52,23.49,0,13.38,7.34,23.2,17.52,23.2s17.4-9.82,17.4-23.2C586.37,92.23,579.56,81.88,569,81.88Zm0,37.87c-5.74,0-10-6-10-14.44,0-8.22,3.85-14.56,10-14.56s10,6.34,10,14.56C579,113.83,574.71,119.75,569,119.75Z" transform="translate(-22.28 -19.75)"/><polygon class="cls-1" points="579.12 90.18 571.43 63.19 563.97 63.19 576.87 107.69 581.37 107.69 594.21 63.19 586.76 63.19 579.12 90.18"/><polygon class="cls-1" points="602.38 89.23 618.54 89.23 618.54 80.41 602.38 80.41 602.38 72.01 620.13 72.01 620.13 63.19 595.28 63.19 595.28 107.69 620.55 107.69 620.55 98.82 602.38 98.82 602.38 89.23"/><path class="cls-1" d="M677.63,70.45c-17.36-10-42.08-18.9-73.49-26.53C540,28.33,454.84,19.75,364.28,19.75S188.54,28.33,124.42,43.92C93,51.55,68.28,60.48,50.92,70.45,31.92,81.37,22.28,93.34,22.28,106s9.64,24.66,28.64,35.58c17.36,10,42.09,18.9,73.5,26.53,64.12,15.59,149.3,24.17,239.86,24.17S540,183.73,604.14,168.14c31.41-7.63,56.13-16.56,73.49-26.53,19-10.92,28.65-22.89,28.65-35.58S696.64,81.37,677.63,70.45Zm-4.16,63.91c-16.67,9.58-40.66,18.22-71.3,25.66-63.5,15.43-148,23.93-237.89,23.93s-174.4-8.5-237.89-23.93c-30.64-7.44-54.63-16.08-71.3-25.66C34.88,122.75,30.64,112.55,30.64,106c0-11.81,13.29-21.93,24.45-28.33C71.76,68.12,95.75,59.48,126.39,52c63.49-15.43,148-23.93,237.89-23.93S538.67,36.61,602.17,52c30.64,7.44,54.63,16.08,71.3,25.66,20.21,11.61,24.45,21.81,24.45,28.33C697.92,117.84,684.62,128,673.47,134.36Z" transform="translate(-22.28 -19.75)"/></svg>